<svg width="244" height="56" viewBox="0 0 244 56" fill="none" xmlns="http://www.w3.org/2000/svg">
<g id="Name Logo">
<path id="Vector" d="M241.972 29.9468C242.135 29.7851 242.338 29.7244 242.581 29.7648C242.866 29.8053 243.13 29.9064 243.373 30.0681C243.617 30.2298 243.8 30.4522 243.922 30.7352C244.044 30.9778 244.023 31.2406 243.861 31.5237C243.333 33.1006 242.581 34.6774 241.607 36.2543C240.673 37.7908 239.596 39.2464 238.378 40.6211C237.16 41.9958 235.88 43.2492 234.54 44.3813C233.2 45.5135 231.88 46.4434 230.58 47.1712C229.971 47.4947 229.321 47.616 228.631 47.5351C227.94 47.4542 227.25 47.2723 226.559 46.9893C225.869 46.6658 225.239 46.3019 224.671 45.8976C224.102 45.4932 223.635 45.1091 223.27 44.7452C222.498 43.9366 222.072 42.8651 221.99 41.5308C221.909 40.1561 222.072 38.6803 222.478 37.1034C222.843 35.5265 223.412 33.889 224.183 32.1908C224.955 30.4926 225.808 28.8955 226.742 27.3995C227.717 25.9035 228.732 24.5894 229.788 23.4573C230.844 22.3252 231.839 21.4963 232.773 20.9707C233.342 20.6877 233.87 20.5461 234.357 20.5461C234.845 20.5057 235.352 20.5866 235.88 20.7887C236.408 20.9505 236.936 21.2133 237.464 21.5772C238.033 21.9007 238.662 22.2645 239.353 22.6689C240.327 23.2754 240.774 24.0436 240.693 24.9735C240.693 25.4183 240.51 26.2068 240.145 27.3389C239.82 28.471 239.332 29.6638 238.683 30.9172C238.073 32.1302 237.302 33.2825 236.368 34.3742C235.474 35.4255 234.459 36.133 233.322 36.4969C232.509 36.6991 231.799 36.7597 231.189 36.6789C230.58 36.598 229.91 36.3958 229.179 36.0724C228.976 36.4767 228.753 37.0832 228.509 37.8919C228.265 38.6601 228.082 39.4485 227.961 40.2572C227.839 41.0658 227.798 41.7936 227.839 42.4406C227.879 43.0471 228.123 43.3907 228.57 43.4716C229.22 43.5929 230.133 43.2492 231.311 42.4406C232.53 41.6319 233.789 40.5806 235.088 39.2868C236.388 37.9525 237.667 36.4565 238.926 34.7987C240.185 33.141 241.201 31.5237 241.972 29.9468ZM235.88 25.4587C235.474 25.7418 234.946 26.2876 234.296 27.0963C233.687 27.8645 233.078 28.6934 232.469 29.5829C231.9 30.4724 231.392 31.3013 230.946 32.0695C230.539 32.8377 230.336 33.3229 230.336 33.5251C231.067 33.6464 231.738 33.424 232.347 32.858C232.997 32.2919 233.565 31.5843 234.053 30.7352C234.581 29.8457 234.987 28.9158 235.271 27.9454C235.596 26.975 235.799 26.1461 235.88 25.4587Z" fill="#1C1D1C"/>
<path id="Vector_2" d="M221.546 35.2839C221.586 35.6478 221.668 35.9106 221.789 36.0724C221.952 36.1937 222.094 36.2948 222.216 36.3756C222.378 36.4161 222.5 36.4767 222.581 36.5576C222.703 36.598 222.744 36.7193 222.703 36.9215C222.622 37.2449 222.257 37.4269 221.607 37.4673C220.998 37.5077 220.327 37.4471 219.596 37.2854C218.865 37.1236 218.175 36.9013 217.525 36.6182C216.916 36.2948 216.571 35.9309 216.489 35.5265C216.286 34.8392 216.205 34.1114 216.246 33.3432C216.286 32.5345 216.286 31.7258 216.246 30.9172C214.093 33.2623 212.245 35.8096 210.702 38.559C209.159 41.268 207.94 44.442 207.047 48.0809C206.925 48.5257 206.6 48.7683 206.072 48.8087C205.503 48.8087 204.915 48.6874 204.305 48.4448C203.696 48.2022 203.168 47.8788 202.721 47.4745C202.275 47.0701 202.092 46.6456 202.173 46.2008C202.539 44.0174 203.067 41.733 203.757 39.3474C204.407 36.9619 205.179 34.6168 206.072 32.3121C206.966 29.967 207.92 27.7432 208.935 25.6407C209.951 23.5382 210.946 21.658 211.92 20.0003C212.123 19.6364 212.408 19.414 212.773 19.3332C213.139 19.2523 213.525 19.2725 213.931 19.3938C214.865 19.7173 215.515 20.1216 215.88 20.6068C216.286 21.0516 216.347 21.5772 216.063 22.1837C215.535 23.3158 214.966 24.5086 214.357 25.762C213.748 26.975 213.118 28.3699 212.469 29.9468C213.078 29.0977 213.626 28.3093 214.114 27.5815C214.56 26.975 214.946 26.3887 215.271 25.8226C215.637 25.2566 215.86 24.9129 215.941 24.7916C216.307 24.2255 216.611 23.9223 216.855 23.8819C217.099 23.801 217.505 23.8819 218.073 24.1245C219.211 24.5692 220.063 24.8927 220.632 25.0948C221.201 25.297 221.586 25.5598 221.789 25.8833C221.993 26.2067 222.053 26.6717 221.972 27.2782C221.891 27.8847 221.789 28.8147 221.668 30.0681C221.424 31.8876 221.383 33.6262 221.546 35.2839Z" fill="#1C1D1C"/>
<path id="Vector_3" d="M206.336 38.0132C206.661 37.9727 206.884 38.094 207.006 38.3771C207.169 38.6197 207.25 38.9229 207.25 39.2868C207.25 39.6103 207.169 39.9135 207.006 40.1965C206.884 40.4796 206.722 40.6211 206.519 40.6211C205.585 40.7424 204.712 40.7828 203.899 40.7424C203.087 40.7019 202.133 40.4998 201.036 40.1359C200.833 40.5402 200.569 41.1063 200.244 41.8341C199.919 42.5214 199.513 43.2492 199.026 44.0174C198.579 44.7452 198.031 45.473 197.381 46.2008C196.772 46.8882 196.081 47.434 195.31 47.8384C194.66 48.2022 193.827 48.3235 192.812 48.2022C191.837 48.0405 190.842 47.7373 189.827 47.2925C188.852 46.8477 187.979 46.2817 187.207 45.5943C186.435 44.907 185.948 44.159 185.745 43.3503C185.42 42.2586 185.359 41.0658 185.562 39.772C185.765 38.4781 186.09 37.2247 186.537 36.0117C186.984 34.7583 187.532 33.6262 188.182 32.6154C188.791 31.5641 189.38 30.7757 189.949 30.25C190.152 30.0479 190.375 29.8659 190.619 29.7042C190.862 29.5425 191.086 29.3605 191.289 29.1584C191.126 28.3093 191.025 27.4602 190.984 26.6111C190.944 25.7216 191.147 24.8725 191.593 24.0638C191.959 23.4169 192.71 23.0126 193.847 22.8508C195.025 22.6487 196.244 22.7295 197.503 23.0934C198.802 23.4573 199.98 24.1245 201.036 25.0949C202.092 26.0652 202.722 27.3591 202.925 28.9764C203.128 30.4724 203.107 31.9078 202.864 33.2825C202.661 34.6572 202.397 36.0724 202.072 37.528C202.437 37.7706 203.026 37.9525 203.838 38.0738C204.691 38.1951 205.524 38.1749 206.336 38.0132ZM190.862 44.9878C192.446 44.0579 193.604 42.9662 194.335 41.7128C195.106 40.4593 195.777 39.1251 196.345 37.7099C194.924 36.7395 193.827 35.5063 193.055 34.0103C192.852 34.2125 192.588 34.7583 192.264 35.6478C191.939 36.5374 191.614 37.5684 191.289 38.741C191.005 39.8731 190.801 41.0254 190.68 42.198C190.558 43.3301 190.619 44.26 190.862 44.9878ZM197.259 34.2529C197.503 33.6868 197.665 33.0197 197.746 32.2515C197.828 31.4428 197.828 30.6544 197.746 29.8862C197.706 29.0775 197.604 28.3699 197.442 27.7634C197.32 27.1165 197.178 26.6515 197.015 26.3685C196.366 27.1771 196.061 28.289 196.102 29.7042C196.183 31.1193 196.569 32.6356 197.259 34.2529Z" fill="#1C1D1C"/>
<path id="Vector_4" d="M194.942 13.8747C196.647 14.1982 197.967 14.5014 198.901 14.7845C199.917 15.1483 200.628 15.5931 201.034 16.1187C201.277 16.4826 201.541 16.988 201.826 17.635C201.907 17.9584 201.988 18.2819 202.069 18.6054C202.151 18.9288 202.211 19.2321 202.252 19.5151C202.252 20.1216 202.069 20.4653 201.704 20.5461C201.095 19.7375 199.876 19.0906 198.049 18.6054C195.287 17.9989 193.195 17.7361 191.774 17.8169C191.449 18.3021 191.124 18.7873 190.799 19.2725C190.474 19.7577 190.149 20.2429 189.824 20.7281C187.834 24.1245 186.128 27.6017 184.707 31.1598C183.286 34.8392 182.169 38.3973 181.356 41.8341C180.625 45.2709 180.402 48.0405 180.686 50.143C180.971 52.3668 181.905 53.5596 183.489 53.7213C182.879 54.247 181.986 54.4289 180.808 54.2672C179.752 54.1459 178.656 53.5192 177.518 52.3871C176.381 51.3358 175.67 49.7589 175.386 47.6564C175.224 46.0795 175.346 44.2398 175.752 42.1373C176.117 39.9944 176.747 37.5684 177.64 34.8594C178.534 32.1504 179.529 29.502 180.625 26.9143C181.762 24.3266 182.981 21.7793 184.281 19.2725C184.362 19.0703 184.463 18.8884 184.585 18.7267C184.707 18.5245 184.809 18.3223 184.89 18.1202C184.687 18.1202 184.423 18.1404 184.098 18.1808C183.813 18.2213 183.489 18.2819 183.123 18.3628C182.758 18.4436 182.412 18.5245 182.087 18.6054C181.762 18.6862 181.438 18.7873 181.113 18.9086C180.788 18.9895 180.524 19.1108 180.321 19.2725C180.118 19.3938 179.975 19.4949 179.894 19.5758C179.651 19.9801 179.427 20.1014 179.224 19.9397C178.94 19.7375 178.696 19.4747 178.493 19.1512C178.412 18.949 178.31 18.7671 178.189 18.6054C178.067 18.4032 177.965 18.201 177.884 17.9989C177.803 17.7967 177.742 17.6148 177.701 17.453C177.661 17.2913 177.62 17.17 177.579 17.0891C177.417 16.6444 177.457 16.24 177.701 15.8761C177.782 15.674 177.904 15.5122 178.067 15.3909C178.229 15.2696 178.412 15.1483 178.615 15.027C179.874 14.5419 181.255 14.178 182.758 13.9354C183.489 13.8545 184.179 13.7736 184.829 13.6928C185.479 13.6119 186.088 13.531 186.656 13.4502C186.778 13.4502 186.92 13.4502 187.083 13.4502C187.245 13.4502 187.428 13.43 187.631 13.3895C188.971 11.4892 190.312 9.81121 191.652 8.35562C192.058 7.95129 192.647 7.85021 193.419 8.05238C194.068 8.17368 194.759 8.55779 195.49 9.20471C196.18 9.85164 196.586 10.4177 196.708 10.9029C196.83 11.469 196.729 11.8531 196.404 12.0552C196.079 12.4596 195.795 12.8235 195.551 13.1469C195.307 13.43 195.104 13.6725 194.942 13.8747Z" fill="#1C1D1C"/>
<path id="Vector_5" d="M150.011 36.2543C149.32 36.8204 148.63 37.5886 147.94 38.559C147.249 39.5294 146.66 40.5604 146.173 41.6521C145.726 42.7438 145.422 43.8355 145.259 44.9272C145.097 45.9784 145.158 46.9084 145.442 47.717C145.767 48.4853 146.356 49.0513 147.209 49.4152C148.102 49.7387 149.381 49.7185 151.047 49.3546C152.671 48.9502 154.357 48.3033 156.103 47.4138C157.849 46.5243 159.454 45.5134 160.916 44.3813C162.378 43.2088 163.576 41.9958 164.51 40.7424C165.444 39.4889 165.911 38.3164 165.911 37.2247C165.911 36.0521 165.505 35.0615 164.693 34.2529C163.921 33.4442 162.926 32.7366 161.708 32.1302C160.53 31.4832 159.21 30.9172 157.748 30.432C156.326 29.9063 154.945 29.3605 153.605 28.7944C152.306 28.1879 151.148 27.5006 150.133 26.7324C149.117 25.9641 148.447 25.014 148.122 23.8818C147.676 22.3454 147.838 20.6068 148.61 18.666C149.422 16.6848 150.6 14.744 152.143 12.8437C153.686 10.9433 155.494 9.22492 157.565 7.68847C159.636 6.11159 161.708 4.97947 163.779 4.29211C165.891 3.60475 167.861 3.46323 169.688 3.86756C171.556 4.27189 173.079 5.48488 174.257 7.50652C174.542 6.90003 174.907 6.21267 175.354 5.44444C175.841 4.67622 176.308 3.92821 176.755 3.20042C177.202 2.47263 177.628 1.8257 178.034 1.25964C178.481 0.69358 178.826 0.329684 179.07 0.167952C179.435 -0.0746447 180.024 -0.0544292 180.837 0.2286C181.649 0.471199 182.4 0.855312 183.091 1.38094C183.822 1.86613 184.37 2.41198 184.736 3.01847C185.142 3.62497 185.101 4.11016 184.614 4.47405C183.842 5.16141 182.969 6.15202 181.994 7.44587C181.019 8.69929 180.045 10.1144 179.07 11.6913C178.136 13.2278 177.242 14.8451 176.389 16.5433C175.537 18.201 174.826 19.7779 174.257 21.2739C173.729 22.7295 173.384 24.0234 173.222 25.1555C173.1 26.2472 173.262 27.0154 173.709 27.4602C173.303 27.8241 172.775 27.9656 172.125 27.8847C171.475 27.7634 170.846 27.4804 170.237 27.0356C169.627 26.5504 169.099 25.9439 168.653 25.2161C168.246 24.4479 168.104 23.5988 168.226 22.6689C168.348 21.5367 168.632 20.2833 169.079 18.9086C169.566 17.5339 170.033 16.1592 170.48 14.7844C170.927 13.3693 171.252 12.035 171.455 10.7816C171.699 9.48773 171.638 8.35561 171.272 7.38522C171.069 6.8596 170.521 6.71808 169.627 6.96068C168.774 7.16284 167.739 7.64804 166.52 8.41626C165.302 9.14405 164.002 10.074 162.621 11.2061C161.281 12.3383 160.022 13.5512 158.844 14.8451C157.667 16.0985 156.651 17.3721 155.798 18.666C154.986 19.9599 154.519 21.1122 154.397 22.123C154.275 23.1338 154.641 23.9829 155.494 24.6703C156.387 25.3172 157.524 25.9641 158.905 26.6111C160.327 27.2176 161.87 27.8645 163.535 28.5518C165.2 29.1988 166.723 30.0074 168.104 30.9778C169.526 31.9078 170.683 33.0803 171.577 34.4955C172.47 35.8702 172.856 37.5886 172.734 39.6507C172.694 40.6615 172.308 41.7532 171.577 42.9257C170.886 44.0983 169.952 45.2708 168.774 46.4434C167.597 47.616 166.236 48.7481 164.693 49.8398C163.149 50.9314 161.505 51.9018 159.758 52.7509C158.012 53.6404 156.225 54.3682 154.397 54.9343C152.57 55.5004 150.803 55.844 149.097 55.9653C147.635 56.0462 146.396 55.9856 145.381 55.7834C144.366 55.5812 143.513 55.278 142.822 54.8737C142.01 54.348 141.421 53.7011 141.056 52.9329C140.69 52.1646 140.507 51.3156 140.507 50.3856C140.507 49.4152 140.649 48.4044 140.934 47.3531C141.218 46.3019 141.604 45.2506 142.091 44.1994C142.904 42.4608 143.858 40.803 144.955 39.2261C146.092 37.6492 147.229 36.315 148.366 35.2233C148.569 35.0615 148.813 35.0009 149.097 35.0413C149.381 35.0413 149.625 35.1222 149.828 35.2839C150.031 35.4052 150.153 35.567 150.194 35.7691C150.275 35.9713 150.214 36.133 150.011 36.2543Z" fill="#1C1D1C"/>
<path id="Vector_6" d="M130.339 19.4544C131.557 20.0205 132.634 20.627 133.568 21.2739C134.502 21.9209 135.314 22.588 136.004 23.2753C137.304 24.6501 137.71 26.793 137.223 29.7042C137.101 30.3915 136.878 31.2406 136.553 32.2515C136.228 33.2623 135.822 34.4348 135.334 35.7691C134.888 37.0225 134.441 38.2962 133.994 39.59C133.588 40.8839 133.202 42.1979 132.837 43.5322C132.024 46.2817 131.618 48.5459 131.618 50.325C131.618 52.2657 132.349 53.2563 133.811 53.2968C133.324 54.1459 132.41 54.4289 131.07 54.1459C130.379 53.9841 129.709 53.7011 129.06 53.2968C128.45 52.8924 127.841 52.3668 127.232 51.7199C126.054 50.426 125.648 48.647 126.013 46.3828C126.379 44.9272 126.826 43.3705 127.354 41.7127C127.882 40.055 128.511 38.3164 129.242 36.4969C130.136 34.1518 130.826 32.211 131.314 30.6746C131.598 29.7042 131.781 28.7944 131.862 27.9454C131.984 27.0558 131.943 26.2674 131.74 25.58C131.456 24.2862 130.319 23.2754 128.328 22.5476C128.207 26.0652 126.948 30.3915 124.551 35.5265C122.196 40.8232 119.597 44.6441 116.754 46.9892C116.429 47.2318 116.185 47.3734 116.023 47.4138C115.982 47.4138 115.962 47.434 115.962 47.4744C115.88 47.5149 115.819 47.5351 115.779 47.5351C115.738 47.5351 115.677 47.5553 115.596 47.5957C114.256 47.9596 112.611 47.8181 110.662 47.1712C108.631 46.403 106.905 45.4326 105.483 44.26C103.981 43.0875 103.107 41.7128 102.864 40.1359C102.661 35.567 103.635 31.4024 105.788 27.6421C106.844 25.7418 107.9 24.1649 108.956 22.9115C110.052 21.658 111.19 20.7281 112.367 20.1216C113.261 19.596 114.154 19.4747 115.048 19.7577C115.495 19.9194 115.941 20.1216 116.388 20.3642C116.875 20.6068 117.403 20.8898 117.972 21.2133C118.134 21.2941 118.297 21.3952 118.459 21.5165C118.622 21.5974 118.784 21.6783 118.947 21.7591C119.881 22.2847 120.348 22.9923 120.348 23.8818C120.267 24.6501 119.962 25.7822 119.434 27.2782C119.109 28.0869 118.723 28.8753 118.277 29.6435C117.87 30.4118 117.383 31.1598 116.815 31.8876C115.718 33.424 114.418 34.4348 112.916 34.92C112.144 35.2031 111.453 35.2839 110.844 35.1626C110.519 35.0818 110.194 35.0211 109.87 34.9807C109.545 34.8998 109.22 34.7583 108.895 34.5561C108.001 37.4673 108.083 39.6709 109.139 41.1669C110.154 42.6629 111.311 43.2088 112.611 42.8044C115.373 41.6723 118.541 37.4066 122.115 30.0074V29.9468C122.318 29.502 122.521 28.9764 122.724 28.3699C122.805 28.0464 122.886 27.8038 122.967 27.6421C123.049 27.4399 123.089 27.2984 123.089 27.2176C124.186 23.5786 123.638 21.0718 121.444 19.697C120.916 19.3736 120.754 18.8682 120.957 18.1808C121.201 17.453 121.607 16.7657 122.175 16.1187C122.907 15.4314 123.536 14.9664 124.064 14.7238C124.754 14.4408 125.303 14.5418 125.709 15.027C125.993 15.5122 126.237 15.8761 126.44 16.1187C126.805 16.7252 127.232 17.2711 127.719 17.7563C128.166 18.2415 129.039 18.8075 130.339 19.4544ZM115.474 24.4277C115.19 24.6299 114.865 24.9331 114.5 25.3374C114.175 25.7013 113.789 26.1865 113.342 26.793C112.895 27.3186 112.469 27.8645 112.063 28.4305C111.697 28.9562 111.352 29.502 111.027 30.0681C110.296 31.2406 109.93 31.928 109.93 32.1302C110.865 32.2515 111.758 31.8471 112.611 30.9172C112.977 30.4724 113.322 29.9872 113.647 29.4616C114.012 28.936 114.317 28.3699 114.56 27.7634C114.804 27.1165 114.987 26.5302 115.109 26.0046C115.271 25.4385 115.393 24.9129 115.474 24.4277Z" fill="#1C1D1C"/>
<path id="Vector_7" d="M105.129 31.0385C105.292 31.1193 105.434 31.18 105.556 31.2204C105.677 31.2609 105.799 31.3215 105.921 31.4024C106.043 31.5237 106.145 31.6248 106.226 31.7056C106.348 31.7865 106.449 31.8674 106.53 31.9482C106.652 32.1504 106.693 32.2919 106.652 32.3728C106.124 33.424 105.515 34.5966 104.825 35.8904C104.175 37.1843 103.403 38.5994 102.51 40.1359C100.682 43.2088 98.8544 45.2911 97.0268 46.3828C96.377 46.7062 95.5038 46.8073 94.4072 46.686C93.9198 46.5647 93.4528 46.4232 93.006 46.2615C92.5999 46.0997 92.1735 45.8774 91.7267 45.5943C90.9144 45.1496 90.4474 44.6239 90.3255 44.0174C90.0818 43.0875 90.1834 41.6723 90.6301 39.772C90.8332 38.842 91.0566 37.9323 91.3003 37.0428C91.5845 36.1128 91.8688 35.1829 92.1531 34.2529C92.4781 33.3229 92.7827 32.4941 93.067 31.7663C93.3919 30.998 93.6762 30.3309 93.9198 29.7648C93.1076 30.5735 92.275 31.5035 91.4221 32.5547C90.6098 33.5655 89.7976 34.7583 88.9853 36.133C88.1324 37.4673 87.3404 38.8622 86.6094 40.3178C85.919 41.7734 85.2894 43.2694 84.7208 44.8059C84.599 45.1698 84.2132 45.3113 83.5634 45.2304C82.9948 45.2304 82.3653 45.0283 81.6748 44.6239C81.1062 44.26 80.7813 43.7748 80.7001 43.1684C80.7001 42.3597 80.8829 41.1669 81.2484 39.59C81.4515 38.7409 81.6342 37.9121 81.7967 37.1034C81.9997 36.2948 82.2028 35.5063 82.4059 34.7381C82.6089 33.9294 82.7917 33.2825 82.9542 32.7973C83.1166 32.3121 83.2384 31.9482 83.3197 31.7056C82.1825 32.8782 80.6595 35.0818 78.7506 38.3164C77.6947 39.9742 76.6997 41.6117 75.7655 43.229C74.872 44.8059 73.9988 46.403 73.146 48.0203C72.9023 48.4246 72.3946 48.6066 71.6229 48.5661C71.2168 48.4853 70.8513 48.4044 70.5264 48.3235C70.1609 48.2022 69.8156 48.0405 69.4907 47.8383C68.8409 47.5149 68.4754 47.0903 68.3942 46.5647C68.6378 43.7344 69.4907 40.1157 70.9528 35.7085C71.7245 33.4847 72.4555 31.5641 73.146 29.9468C73.877 28.3295 74.608 26.9952 75.3391 25.9439C75.5422 25.6205 75.9483 25.4992 76.5575 25.58C76.8012 25.6609 77.0652 25.7418 77.3495 25.8226C77.6338 25.9035 77.9181 26.0248 78.2024 26.1865C78.4866 26.3887 78.7303 26.5706 78.9334 26.7324C79.1771 26.8941 79.3802 27.0761 79.5426 27.2782C79.9081 27.6825 80.03 28.0262 79.9081 28.3093C79.5832 28.7136 79.2583 29.1988 78.9334 29.7648C78.6085 30.3309 78.2227 31.0183 77.7759 31.8269C76.9636 33.2825 76.1717 35.0211 75.4 37.0428C75.7655 36.4767 76.192 35.8096 76.6794 35.0413C77.2073 34.2327 77.7962 33.3432 78.446 32.3728C79.0959 31.4024 79.7457 30.4522 80.3955 29.5222C81.0453 28.5519 81.7154 27.6421 82.4059 26.793C83.6243 24.9735 84.6599 23.7403 85.5128 23.0934C86.0002 22.7295 86.5891 22.6689 87.2795 22.9115C87.645 22.9923 87.9902 23.1338 88.3152 23.336C88.6807 23.4977 88.9853 23.7201 89.229 24.0032C89.9194 24.5288 90.2037 25.0544 90.0818 25.58C90.0412 25.6609 90.0006 25.7822 89.96 25.9439C89.96 26.1057 89.9194 26.3078 89.8382 26.5504C89.7569 26.7526 89.6554 26.9952 89.5336 27.2782C89.4523 27.5208 89.3508 27.7836 89.229 28.0667C89.1071 28.5114 88.965 28.936 88.8025 29.3403C88.6807 29.7446 88.5791 30.1287 88.4979 30.4926C88.2136 31.2204 88.0918 31.6652 88.1324 31.8269C88.2136 31.7461 88.2948 31.6248 88.3761 31.463C88.4979 31.3013 88.6604 31.0991 88.8634 30.8565C89.3102 30.1692 89.8382 29.4414 90.4474 28.6732C91.0972 27.8645 91.8282 26.9345 92.6405 25.8833C94.265 23.9021 95.6662 22.5071 96.844 21.6985C97.9812 21.0111 99.0778 21.2537 100.134 22.4263C100.459 22.7497 100.723 23.0732 100.926 23.3967C101.169 23.6797 101.332 23.9627 101.413 24.2458C101.657 24.8118 101.555 25.5194 101.108 26.3685C100.784 26.975 100.438 27.723 100.073 28.6125C99.7073 29.4616 99.2808 30.4724 98.7935 31.645C98.3467 32.8175 97.9 33.9699 97.4532 35.102C97.0471 36.1937 96.6613 37.3056 96.2957 38.4377C95.5241 40.7019 95.1179 42.3193 95.0773 43.2896C96.8237 42.3193 98.4483 40.6211 99.951 38.1951C100.763 36.9821 101.494 35.8096 102.144 34.6774C102.835 33.5453 103.484 32.4334 104.094 31.3417V31.2204L105.129 31.0385Z" fill="#1C1D1C"/>
<path id="Vector_8" d="M73.8899 28.7338C74.0117 28.5721 74.2351 28.5114 74.56 28.5518C74.9255 28.5518 75.2504 28.6327 75.5347 28.7944C75.8596 28.9562 76.1033 29.1786 76.2657 29.4616C76.4688 29.7042 76.4891 29.967 76.3267 30.25C75.555 31.5843 74.6615 33.0803 73.6462 34.7381C72.6714 36.3554 71.6155 37.9525 70.4783 39.5294C69.3817 41.1063 68.2446 42.5416 67.0668 43.8355C65.889 45.0889 64.7315 45.9784 63.5943 46.5041C62.9851 46.7871 62.3353 46.8882 61.6448 46.8073C60.995 46.686 60.3858 46.4636 59.8172 46.1402C59.2893 45.7763 58.8222 45.3517 58.4161 44.8665C58.0505 44.3409 57.8475 43.8355 57.8069 43.3503C57.7256 42.7034 57.8069 41.8138 58.0505 40.6817C58.2942 39.5496 58.5582 38.5186 58.8425 37.5886C58.3551 38.1547 57.8272 38.8218 57.2586 39.59C56.7306 40.3178 56.1417 41.1063 55.4919 41.9554C54.8421 42.8044 54.1516 43.6535 53.4206 44.5026C52.7301 45.3517 51.9991 46.1402 51.2274 46.868C50.8619 47.2318 50.2933 47.3734 49.5217 47.2925C48.7906 47.2116 48.0596 47.0095 47.3285 46.686C46.5975 46.3221 45.968 45.8773 45.44 45.3517C44.8714 44.7857 44.6277 44.1994 44.709 43.5929C44.8308 42.0564 45.1963 40.4189 45.8055 38.6803C46.4147 36.9417 47.1661 35.2637 48.0596 33.6464C48.9125 31.9886 49.8669 30.4522 50.9228 29.037C52.0194 27.6219 53.0957 26.4696 54.1516 25.58C54.9233 24.9735 55.634 24.6299 56.2838 24.549C56.9337 24.4681 57.5632 24.549 58.1724 24.7916C58.7816 24.9938 59.3908 25.3172 60 25.762C60.6092 26.1663 61.259 26.5706 61.9494 26.975C62.3962 26.4898 62.8226 25.9844 63.2288 25.4587C63.6755 24.8927 64.1426 24.3468 64.6299 23.8212C64.9142 23.4573 65.361 23.3158 65.9702 23.3967C66.62 23.4775 67.2292 23.6999 67.7978 24.0638C68.3664 24.4277 68.8132 24.8725 69.1381 25.3981C69.5036 25.8833 69.5442 26.3483 69.2599 26.793C67.879 29.1381 66.7622 31.2204 65.9093 33.0399C65.097 34.8594 64.4878 36.3958 64.0817 37.6492C63.7161 38.9027 63.5334 39.8528 63.5334 40.4998C63.574 41.1467 63.7364 41.4702 64.0207 41.4702C64.833 41.4297 66.0717 40.338 67.7369 38.1951C69.4021 36.0522 71.453 32.8984 73.8899 28.7338ZM59.0862 31.0991C59.208 30.9374 59.2689 30.6544 59.2689 30.25C59.2689 29.8457 59.1877 29.4818 59.0253 29.1583C58.9034 28.7945 58.7004 28.5721 58.4161 28.4912C58.1318 28.4103 57.7662 28.6125 57.3195 29.0977C56.3854 29.9872 55.5122 31.0385 54.6999 32.2515C53.9283 33.4644 53.2378 34.6572 52.6286 35.8298C52.06 37.0023 51.593 38.094 51.2274 39.1048C50.8619 40.0752 50.6792 40.803 50.6792 41.2882C51.1259 40.9243 51.7148 40.338 52.4459 39.5294C53.2175 38.6803 54.0095 37.7503 54.8218 36.7395C55.634 35.7287 56.426 34.7179 57.1976 33.707C57.9693 32.6962 58.5988 31.8269 59.0862 31.0991Z" fill="#1C1D1C"/>
<path id="Vector_9" d="M45.2096 35.2839C45.2502 35.6478 45.3315 35.9106 45.4533 36.0724C45.6158 36.1937 45.7579 36.2948 45.8798 36.3756C46.0422 36.4161 46.164 36.4767 46.2453 36.5576C46.3671 36.598 46.4077 36.7193 46.3671 36.9215C46.2859 37.2449 45.9204 37.4269 45.2705 37.4673C44.6613 37.5077 43.9912 37.4471 43.2602 37.2854C42.5291 37.1236 41.8387 36.9013 41.1889 36.6182C40.5797 36.2948 40.2345 35.9309 40.1532 35.5265C39.9502 34.8392 39.8689 34.1114 39.9095 33.3432C39.9502 32.5345 39.9502 31.7258 39.9095 30.9172C37.757 33.2623 35.9091 35.8096 34.3658 38.559C32.8225 41.268 31.6041 44.442 30.7106 48.0809C30.5887 48.5257 30.2638 48.7683 29.7358 48.8087C29.1672 48.8087 28.5783 48.6874 27.9691 48.4448C27.3599 48.2022 26.832 47.8788 26.3852 47.4745C25.9385 47.0701 25.7557 46.6456 25.8369 46.2008C26.2024 44.0174 26.7304 41.733 27.4209 39.3474C28.0707 36.9619 28.8423 34.6168 29.7358 32.3121C30.6293 29.967 31.5838 27.7432 32.5991 25.6407C33.6144 23.5382 34.6095 21.658 35.5842 20.0003C35.7873 19.6364 36.0716 19.414 36.4371 19.3332C36.8026 19.2523 37.1884 19.2725 37.5946 19.3938C38.5287 19.7173 39.1785 20.1216 39.544 20.6068C39.9502 21.0516 40.0111 21.5772 39.7268 22.1837C39.1988 23.3158 38.6302 24.5086 38.021 25.762C37.4118 26.975 36.7823 28.3699 36.1325 29.9468C36.7417 29.0977 37.29 28.3093 37.7773 27.5815C38.2241 26.975 38.6099 26.3887 38.9348 25.8226C39.3003 25.2566 39.5237 24.9129 39.6049 24.7916C39.9705 24.2255 40.2751 23.9223 40.5187 23.8819C40.7624 23.801 41.1686 23.8819 41.7372 24.1245C42.8743 24.5692 43.7272 24.8927 44.2958 25.0948C44.8644 25.297 45.2502 25.5598 45.4533 25.8833C45.6564 26.2067 45.7173 26.6717 45.6361 27.2782C45.5548 27.8847 45.4533 28.8147 45.3315 30.0681C45.0878 31.8876 45.0472 33.6262 45.2096 35.2839Z" fill="#1C1D1C"/>
<path id="Vector_10" d="M9.38175 16.422C10.2752 16.8263 11.0266 17.2104 11.6358 17.5743C12.245 17.9382 12.773 18.383 13.2197 18.9086C13.6665 19.3938 14.032 20.0003 14.3163 20.7281C14.6006 21.4559 14.8646 22.3858 15.1083 23.5179L19.129 12.4191C18.1543 12.783 17.2811 13.1267 16.5094 13.4501C15.7784 13.7332 15.0474 14.0364 14.3163 14.3599C13.5853 14.6429 12.8339 14.9664 12.0623 15.3303C11.2906 15.6537 10.3971 16.0176 9.38175 16.422ZM31.6177 2.41196C32.5924 2.4524 33.4047 2.73543 34.0545 3.26105C34.7043 3.74625 35.1917 4.35274 35.5166 5.08054C35.8821 5.76789 36.1055 6.5159 36.1867 7.32456C36.3086 8.09279 36.3086 8.75993 36.1867 9.32599C36.1055 9.89205 35.9228 10.2964 35.6385 10.539C35.3948 10.7816 35.1105 10.7007 34.7856 10.2964C34.217 9.64945 33.3235 9.28556 32.1051 9.20469C30.8867 9.12382 29.5667 9.20469 28.1452 9.44729C26.7644 9.68988 25.4241 10.0133 24.1245 10.4177C22.8249 10.822 21.8298 11.2061 21.1394 11.57C21.5861 11.5296 22.0532 11.5902 22.5406 11.752C23.0279 11.8733 23.4544 12.0552 23.8199 12.2978C24.1854 12.5404 24.4697 12.8234 24.6728 13.1469C24.9165 13.4704 24.9774 13.7534 24.8555 13.996L18.8853 29.2796C20.388 28.4305 21.8704 28.1273 23.3325 28.3699C24.8352 28.572 26.0943 28.9966 27.1096 29.6435C28.1249 30.2904 28.7951 30.998 29.12 31.7662C29.4449 32.5345 29.2215 33.0601 28.4499 33.3431C28.328 33.3027 28.1046 33.1814 27.7797 32.9792C27.4954 32.7771 26.9471 32.6962 26.1349 32.7366C25.3226 32.7771 24.1651 33.0197 22.6624 33.4644C21.1597 33.8688 19.129 34.637 16.5704 35.7691L9.93003 53.1148C9.68635 53.7617 9.19899 54.1256 8.46794 54.2065C7.7369 54.3278 7.00585 54.2671 6.27481 54.0246C5.54376 53.782 4.93456 53.3978 4.44719 52.8722C3.95983 52.3466 3.83799 51.7603 4.08167 51.1134L8.46794 39.6507C8.26488 39.7315 7.98058 39.8933 7.61506 40.1359C7.24953 40.3785 6.8434 40.6413 6.39665 40.9243C5.99051 41.2073 5.58437 41.4904 5.17824 41.7734C4.81272 42.016 4.52842 42.1979 4.32535 42.3192C3.8786 42.6023 3.33032 42.582 2.6805 42.2586C2.0713 41.9351 1.52301 41.4904 1.03565 40.9243C0.548284 40.3582 0.223375 39.772 0.0609205 39.1655C-0.101534 38.559 0.0609204 38.1142 0.548284 37.8312C1.44178 37.3055 2.33528 36.8001 3.22878 36.3149C4.1629 35.8298 5.0564 35.3648 5.90928 34.92C6.76217 34.4348 7.53383 34.0103 8.22426 33.6464C8.91469 33.2825 9.48328 32.959 9.93003 32.676C10.1331 31.8269 10.3362 30.8161 10.5392 29.6435C10.7423 28.471 10.8845 27.2984 10.9657 26.1259C11.0875 24.9129 11.1078 23.7403 11.0266 22.6082C10.9454 21.4761 10.7017 20.5259 10.2956 19.7577C9.88942 18.949 9.28022 18.383 8.46794 18.0595C7.69628 17.6956 6.64033 17.6956 5.30008 18.0595C4.69088 18.2617 4.10198 18.1606 3.53339 17.7562C3.00541 17.3115 2.59927 16.7656 2.31498 16.1187C2.0713 15.4718 1.99007 14.8249 2.0713 14.1779C2.19314 13.531 2.55866 13.066 3.16786 12.783C5.9702 11.57 8.73193 10.3368 11.453 9.08339C14.2148 7.82997 16.814 6.69785 19.2509 5.68703C21.7283 4.67621 24.0027 3.86755 26.074 3.26105C28.1859 2.65456 30.0338 2.37153 31.6177 2.41196Z" fill="#1C1D1C"/>
</g>
</svg>
