<svg width="24" height="24" viewBox="0 0 24 24" fill="none" xmlns="http://www.w3.org/2000/svg">
<g id="Pintrest footer logo">
<path id="Vector" d="M18.9852 2.4594C17.3332 0.873472 15.047 0 12.5477 0C8.73002 0 6.38195 1.56493 5.08445 2.87767C3.48535 4.49547 2.56842 6.64362 2.56842 8.77138C2.56842 11.4429 3.68588 13.4934 5.55718 14.2563C5.68281 14.3078 5.80923 14.3337 5.93317 14.3337C6.32795 14.3337 6.64075 14.0754 6.74912 13.661C6.81231 13.4233 6.95866 12.8369 7.02231 12.5823C7.15853 12.0795 7.04847 11.8377 6.75137 11.4876C6.21015 10.8472 5.95811 10.0899 5.95811 9.10438C5.95811 6.17698 8.1379 3.06578 12.1779 3.06578C15.3835 3.06578 17.3748 4.88772 17.3748 7.82052C17.3748 9.67124 16.9762 11.3852 16.2521 12.6468C15.7489 13.5235 14.8642 14.5685 13.5059 14.5685C12.9186 14.5685 12.3909 14.3272 12.058 13.9066C11.7435 13.5089 11.6398 12.9953 11.7664 12.4599C11.9092 11.855 12.1041 11.2241 12.2927 10.6141C12.6366 9.5001 12.9617 8.44789 12.9617 7.60841C12.9617 6.17252 12.079 5.20769 10.7653 5.20769C9.09579 5.20769 7.78783 6.90336 7.78783 9.06805C7.78783 10.1297 8.06997 10.9237 8.19771 11.2286C7.98738 12.1197 6.73741 17.4176 6.50031 18.4166C6.3632 18.9997 5.53735 23.6059 6.90428 23.9731C8.4401 24.3858 9.81293 19.8997 9.95267 19.3928C10.0659 18.9806 10.4622 17.4216 10.705 16.4634C11.4464 17.1775 12.6402 17.6603 13.8017 17.6603C15.9915 17.6603 17.9608 16.6749 19.347 14.8858C20.6913 13.1505 21.4317 10.7318 21.4317 8.0757C21.4316 5.99923 20.5398 3.95209 18.9852 2.4594Z" fill="#D9D9D9"/>
</g>
</svg>
